<svg width="168" height="168" viewBox="0 0 168 168" fill="none" xmlns="http://www.w3.org/2000/svg">
<circle cx="84" cy="84" r="75" fill="white"/>
<path d="M84.0379 75.6921L84.0374 71.1396C84.0372 70.0349 84.9379 69.1553 86.0301 68.9893C92.3358 68.031 97.1672 62.5959 97.1672 56.0345C97.1672 48.7969 91.2887 42.9297 84.0371 42.9297C78.3962 42.9297 73.5861 46.48 71.7276 51.464M84.0379 75.6921L39.9201 100.755C39.3073 101.134 38.8364 101.703 38.58 102.375C38.3236 103.047 38.296 103.785 38.5013 104.474C38.7067 105.164 39.1337 105.767 39.7163 106.19C40.299 106.613 41.005 106.833 41.7255 106.816H126.35C127.039 106.816 127.711 106.6 128.27 106.198C128.829 105.796 129.247 105.228 129.464 104.576C129.682 103.924 129.689 103.219 129.484 102.563C129.278 101.907 128.871 101.331 128.32 100.919L84.0379 75.6921Z" stroke="#4A154B" stroke-width="6" stroke-linecap="round"/>
<path d="M84.0009 165C128.736 165 165.001 128.735 165.001 84C165.001 73.6694 163.067 63.7905 159.541 54.7056C159.177 53.7662 157.846 53.9414 157.707 54.9393L156.082 66.543C155.983 67.2496 155.197 67.6282 154.583 67.2653L146.013 62.2014C145.195 61.7177 144.206 62.5498 144.511 63.45C146.701 69.899 147.888 76.8109 147.888 84C147.888 119.284 119.285 147.887 84.0009 147.887C61.9375 147.887 42.4864 136.703 31.0076 119.695C30.682 119.213 30.847 118.557 31.3573 118.277L35.0978 116.227C35.7814 115.853 35.7924 114.874 35.1174 114.484L25.0498 108.668L12.3686 101.341C11.7296 100.972 10.9245 101.398 10.871 102.134L9.82028 116.581L8.8531 129.88C8.79279 130.709 9.71195 131.246 10.4043 130.785L14.7159 127.918C15.1827 127.607 15.8132 127.742 16.1196 128.211C30.5751 150.361 55.5784 165 84.0009 165Z" fill="#A2E4B8" stroke="#4A154B" stroke-width="6"/>
<path d="M84 3C39.2649 3 3 39.2649 3 84C3 94.1653 4.87253 103.893 8.29148 112.858C8.66303 113.832 10.0358 113.606 10.1114 112.567L10.8702 102.134C10.9237 101.398 11.7288 100.971 12.3678 101.341L22.4799 107.183C23.3091 107.662 24.2952 106.805 23.9669 105.905C21.4732 99.0729 20.1127 91.6953 20.1127 84C20.1127 48.716 48.716 20.1127 84 20.1127C106.536 20.1127 126.347 31.7814 137.72 49.4067C137.803 49.5348 137.756 49.7063 137.62 49.7746L132.417 52.376C131.709 52.7302 131.674 53.7284 132.356 54.1313L143.515 60.7259L154.582 67.2652C155.196 67.6282 155.982 67.2496 156.081 66.5429L158.194 51.4497L159.607 41.3567C159.718 40.5659 158.903 39.9707 158.183 40.317L154.415 42.1304C153.949 42.3548 153.389 42.1856 153.118 41.7443C138.88 18.5049 113.251 3 84 3Z" fill="#DB5AEB" stroke="#4A154B" stroke-width="6"/>
</svg>
