<svg width="128" height="128" viewBox="0 0 128 128" fill="none" xmlns="http://www.w3.org/2000/svg">
<rect width="128" height="128" rx="16" fill="url(#paint0_radial_6_110)"/>
<g filter="url(#filter0_d_6_110)">
<path d="M111.904 33.3723C111.904 35.8775 110.582 38.2275 108.356 39.6786L97.3413 46.8599V98.772C97.3413 101.291 96.0041 103.653 93.7575 105.102L84.1767 111.28C78.5901 114.881 70.8984 111.215 70.8982 104.95V64.0034L64.6954 68.0508C61.7254 69.9887 57.7345 69.9563 54.8024 67.9705L49.8204 64.5962V78.8139C49.8201 85.1585 41.9544 88.8056 36.3877 85.0419L26.4237 78.3049C24.2671 76.8468 22.9941 74.535 22.994 72.0769V32.5357C22.9942 26.2772 30.6719 22.6091 36.2597 26.1978L59.7635 41.294L98.5996 16.0529C104.183 12.4238 111.904 16.0875 111.904 22.3661V33.3723Z" fill="#E25DF9"/>
</g>
<g filter="url(#filter1_di_6_110)">
<path d="M30.4454 74.0351L39.0083 79.8246C41.0006 81.1716 43.6886 79.7443 43.6886 77.3393V53.4505L58.1331 63.2332C59.1335 63.9108 60.4428 63.9221 61.4547 63.2618L77.0299 53.0989V103.507C77.0299 105.882 79.6593 107.316 81.6556 106.028L89.8353 100.754C90.692 100.202 91.2096 99.2523 91.2096 98.2329V45.5814C91.2096 44.5675 91.7217 43.6221 92.5711 43.0683L104.411 35.3492C105.26 34.7955 105.772 33.8501 105.772 32.8362V23.8136C105.772 21.4333 103.133 20.001 101.138 21.2982L61.4097 47.1195C60.4204 47.7624 59.1462 47.7659 58.1535 47.1283L33.747 31.4518C31.7504 30.1694 29.1257 31.603 29.1257 33.976V71.5498C29.1257 72.546 29.6202 73.4772 30.4454 74.0351Z" fill="#D2FFB8"/>
</g>
<defs>
<filter id="filter0_d_6_110" x="16.994" y="8.61608" width="100.91" height="110.083" filterUnits="userSpaceOnUse" color-interpolation-filters="sRGB">
<feFlood flood-opacity="0" result="BackgroundImageFix"/>
<feColorMatrix in="SourceAlpha" type="matrix" values="0 0 0 0 0 0 0 0 0 0 0 0 0 0 0 0 0 0 127 0" result="hardAlpha"/>
<feOffset/>
<feGaussianBlur stdDeviation="3"/>
<feComposite in2="hardAlpha" operator="out"/>
<feColorMatrix type="matrix" values="0 0 0 0 0 0 0 0 0 0 0 0 0 0 0 0 0 0 0.5 0"/>
<feBlend mode="normal" in2="BackgroundImageFix" result="effect1_dropShadow_6_110"/>
<feBlend mode="normal" in="SourceGraphic" in2="effect1_dropShadow_6_110" result="shape"/>
</filter>
<filter id="filter1_di_6_110" x="23.1257" y="14.8086" width="85.6467" height="93.7034" filterUnits="userSpaceOnUse" color-interpolation-filters="sRGB">
<feFlood flood-opacity="0" result="BackgroundImageFix"/>
<feColorMatrix in="SourceAlpha" type="matrix" values="0 0 0 0 0 0 0 0 0 0 0 0 0 0 0 0 0 0 127 0" result="hardAlpha"/>
<feOffset dx="-3" dy="-3"/>
<feGaussianBlur stdDeviation="1.5"/>
<feComposite in2="hardAlpha" operator="out"/>
<feColorMatrix type="matrix" values="0 0 0 0 0 0 0 0 0 0 0 0 0 0 0 0 0 0 0.25 0"/>
<feBlend mode="normal" in2="BackgroundImageFix" result="effect1_dropShadow_6_110"/>
<feBlend mode="normal" in="SourceGraphic" in2="effect1_dropShadow_6_110" result="shape"/>
<feColorMatrix in="SourceAlpha" type="matrix" values="0 0 0 0 0 0 0 0 0 0 0 0 0 0 0 0 0 0 127 0" result="hardAlpha"/>
<feOffset dx="3" dy="2"/>
<feGaussianBlur stdDeviation="1.5"/>
<feComposite in2="hardAlpha" operator="arithmetic" k2="-1" k3="1"/>
<feColorMatrix type="matrix" values="0 0 0 0 0 0 0 0 0 0 0 0 0 0 0 0 0 0 0.25 0"/>
<feBlend mode="normal" in2="shape" result="effect2_innerShadow_6_110"/>
</filter>
<radialGradient id="paint0_radial_6_110" cx="0" cy="0" r="1" gradientUnits="userSpaceOnUse" gradientTransform="translate(64 64) rotate(90) scale(64)">
<stop stop-color="white"/>
<stop offset="1" stop-color="#F5CFD7"/>
</radialGradient>
</defs>
</svg>
